<svg xmlns="http://www.w3.org/2000/svg" width="1223.8" height="410" viewBox="0 0 1223.8 410"><path fill="none" d="M422.4 87.5a82.7 82.7 0 0 0 12.7 44.2l3.7-2.3A78.8 78.8 0 1 0 505.5 8.7V4.5a83.1 83.1 0 0 0-83.1 83.1z"/><path fill="#e6e6e6" d="M513.5 174.6l-2.4.2 2.4-.2zM565.2 23.5l1.4 1.4zM567.1 25.4l1.8 1.8-1.8-1.8zM560.7 19.6l4 3.5-4-3.5zM569 27.4q.9.8 1.6 1.7l-1.5-1.7zM571 29.6l1.5 1.6-1.4-1.6zM558.4 17.8l2 1.6-2-1.6zM572.8 31.5l3.4 4.4-3.4-4.4zM443.7 149.5l-1.8-1.9 1.8 1.9zM441.5 147.2l-1.4-1.5 1.4 1.5zM445.6 151.3l-1.6-1.5 1.6 1.5zM505.5 0h2.6-2.6zM439.7 145.2l-3.4-4.1 3.4 4.1zM508.8 0l2.1.2zM435.1 131.7A83.1 83.1 0 0 1 505.5 4.4V0a87.5 87.5 0 0 0-69.3 141q-2.5-3.3-4.8-7zM593 83.7v0zM558.4 17.8a87 87 0 0 0-47-17.6 87.5 87.5 0 0 1 47 17.6zM513.7 174.6a87 87 0 0 0 46.5-18.8 87.4 87.4 0 0 1-46.5 18.8zM592.9 83.3A87 87 0 0 0 576.2 36q2.5 3.5 4.7 7.1a87.5 87.5 0 0 1 12 40.3zM568.4 148.3l-1.5 1.5 1.5-1.5zM452.4 157a87 87 0 0 0 46.9 17.7 87.5 87.5 0 0 1-47-17.7zM593 87.5v-.8.8zM593 89.3q0 2.8-.3 5.5l.3-5.5zM572.6 143.7a87.1 87.1 0 0 0 20-48.9 87.4 87.4 0 0 1-20 48.9zM570.5 146.1l-1.8 1.9 1.8-1.9zM572.2 144l-1.4 1.7 1.4-1.6zM447.7 153.2l-1.6-1.5 1.6 1.5zM504.6 175h-2zM505.5 175h2.4-2.6zM510.6 174.8l-2.4.1h2.4zM450 155.2l-2-1.7 2 1.7zM501.9 175l-2.2-.2zM564.5 152.1l-2 1.7 2-1.7zM452.2 157l-2-1.7 2 1.6zM562.3 154l-1.8 1.5 1.8-1.5zM566.4 150.3l-1.5 1.4 1.5-1.4z"/><path fill="#eb5e5b" d="M568.7 148l1.8-1.9.3-.4 1.5-1.6.3-.4a87.4 87.4 0 0 0 20.1-48.9l.3-5.4v-.7-2-.4-.4-2.1-.4A87.5 87.5 0 0 0 581 43q-2.3-3.7-4.8-7.1-1.6-2.3-3.4-4.4l-.2-.3-1.4-1.6-.5-.5-1.6-1.8-.1-.1-1.8-1.9-.5-.5-1.4-1.3-.5-.5-4-3.4-.3-.2-2-1.6a87.5 87.5 0 0 0-47-17.7h-.6l-2.1-.1h-3.3v8.7a78.8 78.8 0 1 1-66.7 120.6l-3.7 2.3-3.7 2.3q2.3 3.6 4.9 7l3.4 4.2.5.4 1.4 1.6.4.4q.8 1 1.7 1.8l.3.3 1.6 1.5.5.5 1.6 1.4.3.3 2 1.7h.1q1 1 2.1 1.7l.2.2a87.5 87.5 0 0 0 46.9 17.7h.4l2.2.1h9.2l2.5-.3a87.4 87.4 0 0 0 46.6-18.8l.3-.2 1.8-1.5.2-.2 2-1.8.4-.3 1.5-1.4.5-.6 1.5-1.5z"/><path fill="#2c3535" d="M469.3 108.6q-5.5 0-8.1-3.5t-2.6-9.3v-14q0-6.4 2.3-9.8t8.4-3.4q5.3 0 7.6 2.4t2.3 7.6v.7h-7.6a10.3 10.3 0 0 0-.4-3.6q-.4-1-2-1a2 2 0 0 0-1.6.6 4.7 4.7 0 0 0-.7 2.3 43.6 43.6 0 0 0-.2 4.8v3.4a4.1 4.1 0 0 1 2-1.5 7.7 7.7 0 0 1 3-.6 6.8 6.8 0 0 1 6.3 3 14.8 14.8 0 0 1 2 8.1q0 6.7-2.4 10.2t-8.3 3.6zm.1-6a1.9 1.9 0 0 0 2-1.4 18.6 18.6 0 0 0 .5-5.1 32.3 32.3 0 0 0-.1-3.5 4 4 0 0 0-.7-2 2 2 0 0 0-1.7-.8 2.7 2.7 0 0 0-1.6.5 3.3 3.3 0 0 0-1 1v6.4q0 5 2.6 5zm25 6q-5.8 0-8.2-3t-2.5-9V95h8v1.4a11 11 0 0 0 .6 4.3 2.3 2.3 0 0 0 2.2 1.2 2 2 0 0 0 2.1-1.2 10.8 10.8 0 0 0 .5-4 8.8 8.8 0 0 0-.8-4.5 3.5 3.5 0 0 0-3.3-1.5h-1.4v-5.5h1.3q2.4 0 3.3-1.3a8.1 8.1 0 0 0 1-4.4 7.6 7.6 0 0 0-.7-3.5 2.3 2.3 0 0 0-2.2-1.2 2 2 0 0 0-2 1.3 9.2 9.2 0 0 0-.6 3.5v2h-8v-2.3q0-5.2 2.8-8a10.6 10.6 0 0 1 7.8-2.8q5.1 0 8 2.7T505 79a11.2 11.2 0 0 1-1.4 5.6 5.8 5.8 0 0 1-3.4 3 6.6 6.6 0 0 1 3.5 2.8 11.6 11.6 0 0 1 1.3 6q0 5.7-2.6 9t-8 3.2zm25.3 0q-5.1 0-7.8-3a11.6 11.6 0 0 1-2.8-8V80q0-5.3 2.7-8.3t8-3.1q5.3 0 7.9 3t2.6 8.4v17.6a11.6 11.6 0 0 1-2.8 8q-2.7 3.1-7.8 3.1zm0-7a1.8 1.8 0 0 0 2-1.3 8.1 8.1 0 0 0 .4-3V80.2a9.8 9.8 0 0 0-.4-3.2 1.8 1.8 0 0 0-2-1.3 1.9 1.9 0 0 0-2 1.2 11.2 11.2 0 0 0-.4 3.3v17.2q0 4.2 2.5 4.2zm24.7-26.4h-10.6V69h18.4v5.5l-8.4 33.4H536z"/><circle cx="87" cy="87" r="78.3" fill="#2c3535"/><path fill="#eb5e5b" d="M173.9 82.5l-.4-4.4q-.3-3.3-.9-6.5A87 87 0 0 0 87 0l-4.5.1-4.4.4q-3.3.3-6.5.9-2.2.3-4.3.8t-4.1 1.1L59 4.6l-2 .7a86.5 86.5 0 0 0-11.6 5.2l-3.6 2A87.3 87.3 0 0 0 27 24l-3 3a87.3 87.3 0 0 0-11.4 14.9l-2 3.6a86.5 86.5 0 0 0-5.3 11.6l-.7 2-1.3 4q-.6 2-1 4.2-.6 2.1-1 4.3l-.9 6.5-.3 4.4L0 87a87 87 0 0 0 71.6 85.6q3.2.6 6.5 1l4.4.3 4.5.1a87 87 0 0 0 87-87l-.1-4.5zM87 165.3A78.3 78.3 0 1 1 165.3 87 78.3 78.3 0 0 1 87 165.3z"/><path fill="#fff" d="M40.1 99.3h-12v-6l10.2-24.2h9.3v24.2h3.6v6h-3.6v8.7h-7.5zm0-6V77l-5.8 16.2zm23.3-18.1H52.8V69h18.4v5.5L62.7 108H55zm21 24h-12v-6l10.2-24H92v24.1h3.6v6H92v8.7h-7.5zm0-6v-16l-5.8 16.1zm25.2 6h-12v-6l10.2-24h9.3v24.1h3.6v6h-3.6v8.7h-7.5zm0-6v-16l-5.8 16.1zm24.3 15.4a11.6 11.6 0 0 1-6.4-1.5 7.5 7.5 0 0 1-3-4 22.3 22.3 0 0 1-.8-6.6h7.7a15.1 15.1 0 0 0 .6 4.8 2.2 2.2 0 0 0 2.2 1.3 2 2 0 0 0 1.9-.8 5.2 5.2 0 0 0 .7-2.5q.2-1.7.2-4.8a15 15 0 0 0-.7-5 2.4 2.4 0 0 0-2.4-1.7q-2.4 0-3 3.6h-7l.8-22.4h18.1v6.7h-11.7l-.4 8a4.1 4.1 0 0 1 2.2-1.3 11 11 0 0 1 3.5-.6 6.7 6.7 0 0 1 6 3.3q2 3.2 2 9.2a30.7 30.7 0 0 1-.7 7.7 8.7 8.7 0 0 1-3.1 4.8q-2.3 2-6.7 2z"/><path fill="#2c3535" d="M611.5 56.4h.6q1.7-.5 2.7-3a30.4 30.4 0 0 0 1.4-8.1l.6-8h10.6v19.1h2.5V65h-3.3l-.3-4.9h-11l-.3 4.9h-3.5zm11.2 0V41h-2.1l-.3 4.9a33.7 33.7 0 0 1-.7 5.8 10 10 0 0 1-1.2 3 9.1 9.1 0 0 1-1.5 1.8zM634 41h-3.4v-3.7h11.9V41h-3.4v19h-5zm10.5-3.7H658V60h-4.9V40.9h-3.7V60h-5zm28.6 23a6 6 0 0 1-3.2-.8 3.7 3.7 0 0 1-1.6-2 9.8 9.8 0 0 1-.3-3h3.6a3.7 3.7 0 0 0 .4 2 1.4 1.4 0 0 0 1.2.6 1.3 1.3 0 0 0 1.3-.5 3.3 3.3 0 0 0 .3-1.7 2 2 0 0 0-.7-1.6 4 4 0 0 0-2.3-.5v-2.3a5.4 5.4 0 0 0 1.7-.2 1.4 1.4 0 0 0 .8-.7 2.6 2.6 0 0 0 .2-1.2q0-1.7-1.5-1.7a1.4 1.4 0 0 0-1.2.5 3.2 3.2 0 0 0-.3 1.7H668a6 6 0 0 1 1.2-3.9q1.2-1.5 4.2-1.5a5.6 5.6 0 0 1 4 1.3 4.2 4.2 0 0 1 1.3 3.3 3.8 3.8 0 0 1-.7 2.4 3.2 3.2 0 0 1-1.7 1.1 4 4 0 0 1 1.9 1.3 4.3 4.3 0 0 1 .6 2.7 4.5 4.5 0 0 1-1.4 3.4 6 6 0 0 1-4.2 1.3zm-60.8 25.5H624V102h-4.6V89H617v13h-4.6zm19.6 16.5a6 6 0 0 1-4.2-1.4 5 5 0 0 1-1.4-3.9v-6.2a5 5 0 0 1 1.5-4 6 6 0 0 1 4.1-1.3 6 6 0 0 1 4.2 1.4 5 5 0 0 1 1.5 4V97a5 5 0 0 1-1.5 4 6 6 0 0 1-4.2 1.3zm0-3a1 1 0 0 0 .9-.5 3.4 3.4 0 0 0 .3-1.5v-6.8a3.2 3.2 0 0 0-.3-1.4 1 1 0 0 0-.9-.5 1 1 0 0 0-1 .5 3.3 3.3 0 0 0-.2 1.4v6.8a3.4 3.4 0 0 0 .3 1.5 1 1 0 0 0 1 .5zm13.4 3a5.7 5.7 0 0 1-4-1.4 5.3 5.3 0 0 1-1.5-4v-6a5.3 5.3 0 0 1 1.4-4 5.7 5.7 0 0 1 4.2-1.4 6 6 0 0 1 4 1.2 4.5 4.5 0 0 1 1.5 3.7v1.7h-4.4v-1.8a2 2 0 0 0-.3-1.3.9.9 0 0 0-.8-.4.8.8 0 0 0-.7.5 3.4 3.4 0 0 0-.3 1.5v6.7a3 3 0 0 0 .3 1.4.8.8 0 0 0 .8.5.9.9 0 0 0 .8-.4 2.3 2.3 0 0 0 .2-1.2v-2.2h4.4v2a4.6 4.6 0 0 1-1.4 3.7 5.9 5.9 0 0 1-4 1.2zm9.8-13.4h-2.9v-3h10.5v3h-3V102h-4.5zm9.4-3h4.6V87a5.4 5.4 0 0 1 1.8-1.1 4.9 4.9 0 0 1 1.8-.4 2.9 2.9 0 0 1 2.6 1.4 6.2 6.2 0 0 1 .9 3.4v7a6.4 6.4 0 0 1-1 3.7 3 3 0 0 1-2.6 1.3 5.3 5.3 0 0 1-3.4-1.5v6.5h-4.6zm5.8 13.4a1 1 0 0 0 .9-.5 2.5 2.5 0 0 0 .3-1.3V90a2.3 2.3 0 0 0-.3-1.2 1 1 0 0 0-.8-.5 1.9 1.9 0 0 0-1.3.6v10a2.2 2.2 0 0 0 1.3.4zm11.7 3a3.7 3.7 0 0 1-2-.6 4 4 0 0 1-1.3-1.5 4.5 4.5 0 0 1-.4-1.9 4.8 4.8 0 0 1 1-3 6.8 6.8 0 0 1 2.3-2A29.4 29.4 0 0 1 685 92v-1.7a2 2 0 0 0-.2-1 .8.8 0 0 0-.7-.4.8.8 0 0 0-.8.4 1.9 1.9 0 0 0-.3 1l-.1 1h-4.3a6 6 0 0 1 1.6-4.4 5.8 5.8 0 0 1 4.2-1.4 4.8 4.8 0 0 1 3.7 1.4 4.9 4.9 0 0 1 1.2 3.5V98a23.7 23.7 0 0 0 .3 4h-4l-.4-2.3a4 4 0 0 1-1.2 1.9 2.8 2.8 0 0 1-2 .7zm1.6-3.1a1.6 1.6 0 0 0 1.3-.8V94a6.6 6.6 0 0 0-1.9 1.5 3 3 0 0 0-.6 2 2.2 2.2 0 0 0 .3 1.3 1 1 0 0 0 1 .4zm10.4-5.3l-3-8h4l2.5 7.6h.4v-7.7h3.8v7.7h.3l2.8-7.7h4l-3.3 8 3.4 8.2h-3.8l-3.1-7.8h-.3v7.8H698v-7.8h-.3l-3 7.8H691zm16 5.3a5.7 5.7 0 0 0 2.7-2.7A14.3 14.3 0 0 0 714 91l.5-5.3h8.9v13.4h2.3v7.2h-3.3l-.3-4.4h-8.4l-.3 4.4h-3.3zm9 0V88.5h-1.3l-.3 3.7a15 15 0 0 1-.8 4.5 6 6 0 0 1-1.7 2.5zm11.9 3a3.7 3.7 0 0 1-2-.5 4 4 0 0 1-1.3-1.5 4.5 4.5 0 0 1-.4-1.9 4.8 4.8 0 0 1 1-3 6.8 6.8 0 0 1 2.3-2 29.4 29.4 0 0 1 3.3-1.3v-1.7a2 2 0 0 0-.2-1 .8.8 0 0 0-.8-.4.8.8 0 0 0-.7.4 1.9 1.9 0 0 0-.3 1v1.1l-4.3-.1A6 6 0 0 1 729 87a5.8 5.8 0 0 1 4.3-1.4 4.8 4.8 0 0 1 3.6 1.3 4.9 4.9 0 0 1 1.3 3.5V98a23.6 23.6 0 0 0 .2 4h-4l-.4-2.3a4 4 0 0 1-1.1 1.9 2.8 2.8 0 0 1-2 .7zm1.6-3a1.6 1.6 0 0 0 1.3-.8V94a6.6 6.6 0 0 0-1.9 1.5 3 3 0 0 0-.6 2 2.2 2.2 0 0 0 .3 1.2 1 1 0 0 0 1 .5zm7.3-.3a2.9 2.9 0 0 0 1.9-.5 3.4 3.4 0 0 0 .9-1.7 26 26 0 0 0 .5-3.9l.5-7H754V102h-4.6V88.9h-1.8l-.4 4.8a21.7 21.7 0 0 1-.9 5.3 4.2 4.2 0 0 1-1.8 2.4 7.8 7.8 0 0 1-3.8.8h-.8zm17-13h3.6v8.6l4.3-8.7h3.5V102h-3.7v-8.6l-4.2 8.6H757zm14.3 0h3.3l3.3 7.7 3.4-7.8h3.3V102H781v-8.5l-2.5 6h-1.3l-2.6-6v8.5H771zm16.2 0h3.6v8.6l4.2-8.7h3.6V102H795v-8.6L791 102h-3.6zM1036.5 56.4h.7c1-.3 2-1.4 2.6-3a30.5 30.5 0 0 0 1.4-8.1l.6-8h10.6v19.1h2.5V65h-3.3l-.3-4.9h-11l-.3 4.9h-3.5zm11.2 0V41h-2.1l-.3 4.9a34.4 34.4 0 0 1-.7 5.8 10 10 0 0 1-1.1 3 9.3 9.3 0 0 1-1.6 1.8zM1059 41h-3.4v-3.7h11.9V41h-3.4v19h-5zm10.5-3.7h13.5V60h-4.9V40.9h-3.7V60h-5zm28.6 23a6 6 0 0 1-3.2-.8 3.7 3.7 0 0 1-1.5-2 9.5 9.5 0 0 1-.4-3h3.6a3.7 3.7 0 0 0 .4 2 1.4 1.4 0 0 0 1.3.6 1.3 1.3 0 0 0 1.2-.5 3.3 3.3 0 0 0 .3-1.7 2 2 0 0 0-.7-1.6 4 4 0 0 0-2.3-.5v-2.3a5.4 5.4 0 0 0 1.7-.2 1.4 1.4 0 0 0 .8-.7 2.6 2.6 0 0 0 .2-1.2c0-1.1-.5-1.7-1.4-1.7a1.4 1.4 0 0 0-1.3.5 3.1 3.1 0 0 0-.3 1.7h-3.6a6 6 0 0 1 1.2-4q1.2-1.4 4.2-1.4a5.7 5.7 0 0 1 4 1.3 4.3 4.3 0 0 1 1.3 3.3 3.8 3.8 0 0 1-.7 2.3 3.2 3.2 0 0 1-1.7 1.2 4 4 0 0 1 1.8 1.3 4.3 4.3 0 0 1 .7 2.7 4.5 4.5 0 0 1-1.4 3.4 6 6 0 0 1-4.2 1.3zm-60.8 25.5h11.5V102h-4.6V89h-2.3v13h-4.6zm19.7 16.5a6 6 0 0 1-4.2-1.4 5 5 0 0 1-1.5-4v-6a5 5 0 0 1 1.5-4 6 6 0 0 1 4.2-1.4 6 6 0 0 1 4.1 1.4 5 5 0 0 1 1.5 4V97a5 5 0 0 1-1.5 4 6 6 0 0 1-4.2 1.3zm0-3a1 1 0 0 0 .8-.5 3.4 3.4 0 0 0 .3-1.5v-6.8a3.2 3.2 0 0 0-.3-1.4 1 1 0 0 0-.8-.5 1 1 0 0 0-1 .5 3.3 3.3 0 0 0-.2 1.4v6.8a3.4 3.4 0 0 0 .2 1.5 1 1 0 0 0 1 .5zm13.4 3a5.7 5.7 0 0 1-4.1-1.5 5.3 5.3 0 0 1-1.5-4V91a5.3 5.3 0 0 1 1.5-4 5.7 5.7 0 0 1 4.1-1.4 6 6 0 0 1 4 1.2 4.5 4.5 0 0 1 1.4 3.7V92h-4.4v-1.8a2 2 0 0 0-.2-1.3.9.9 0 0 0-.8-.4.8.8 0 0 0-.8.5 3.4 3.4 0 0 0-.2 1.5v6.7a3 3 0 0 0 .2 1.4.9.9 0 0 0 .8.5.9.9 0 0 0 .8-.4 2.2 2.2 0 0 0 .2-1.2v-2.2h4.4v2a4.6 4.6 0 0 1-1.4 3.7 5.9 5.9 0 0 1-4 1.2zm9.8-13.4h-3v-3h10.5v3h-3V102h-4.5zm9.4-3.1h4.5V87a5.6 5.6 0 0 1 1.8-1.1 4.9 4.9 0 0 1 1.8-.4 2.9 2.9 0 0 1 2.6 1.4 6.2 6.2 0 0 1 .9 3.4v7a6.4 6.4 0 0 1-1 3.7 3 3 0 0 1-2.6 1.3 5.3 5.3 0 0 1-3.4-1.5v6.5h-4.6zm5.8 13.5a1 1 0 0 0 .8-.5 2.5 2.5 0 0 0 .4-1.3V90a2.3 2.3 0 0 0-.3-1.2 1 1 0 0 0-.9-.5 1.9 1.9 0 0 0-1.3.6v10a2.2 2.2 0 0 0 1.3.4zm11.7 3a3.7 3.7 0 0 1-2.1-.6 3.9 3.9 0 0 1-1.3-1.5 4.5 4.5 0 0 1-.4-1.9 4.8 4.8 0 0 1 1-3 6.8 6.8 0 0 1 2.2-2 28.9 28.9 0 0 1 3.5-1.4v-1.6a2 2 0 0 0-.3-1 .8.8 0 0 0-.7-.4.8.8 0 0 0-.7.4 1.9 1.9 0 0 0-.3 1l-.1 1.1-4.3-.1a6 6 0 0 1 1.6-4.3 5.8 5.8 0 0 1 4.2-1.4 4.8 4.8 0 0 1 3.7 1.3 4.9 4.9 0 0 1 1.2 3.6V98a23.4 23.4 0 0 0 .3 4h-4l-.4-2.3a4.1 4.1 0 0 1-1.2 1.9 2.8 2.8 0 0 1-2 .7zm1.6-3.1a1.6 1.6 0 0 0 1.3-.8V94a6.6 6.6 0 0 0-2 1.5 3 3 0 0 0-.6 2 2.1 2.1 0 0 0 .3 1.3 1 1 0 0 0 1 .4zm10.3-5.4l-3-8h4l2.5 7.7h.4v-7.7h3.8v7.7h.3l2.7-7.7h4l-3.2 8 3.4 8.2h-3.8l-3.1-7.8h-.3v7.8h-3.8v-7.8h-.3l-3 7.8h-3.8zm16 5.4a5.7 5.7 0 0 0 2.8-2.8 14.3 14.3 0 0 0 1.1-5.3l.5-5.3h8.9v13.4h2.4v7.2h-3.3l-.3-4.4h-8.5l-.2 4.4h-3.4zm9.1 0V88.5h-1.3l-.4 3.7a15 15 0 0 1-.8 4.5 6 6 0 0 1-1.7 2.5zm11.8 3a3.7 3.7 0 0 1-2-.5 4 4 0 0 1-1.3-1.5 4.5 4.5 0 0 1-.5-1.9 4.8 4.8 0 0 1 1-3 6.8 6.8 0 0 1 2.3-2 29.9 29.9 0 0 1 3.5-1.3v-1.7a2 2 0 0 0-.3-1 .7.7 0 0 0-.7-.4.8.8 0 0 0-.8.4 1.9 1.9 0 0 0-.2 1l-.1 1.1-4.3-.1a6 6 0 0 1 1.6-4.3 5.8 5.8 0 0 1 4.2-1.4 4.8 4.8 0 0 1 3.7 1.3 4.9 4.9 0 0 1 1.2 3.6V98a23.3 23.3 0 0 0 .3 4h-4l-.5-2.3a4 4 0 0 1-1 1.9 2.8 2.8 0 0 1-2.1.7zm1.6-3a1.6 1.6 0 0 0 1.3-.8V94a6.7 6.7 0 0 0-1.9 1.5 3 3 0 0 0-.6 2 2.1 2.1 0 0 0 .3 1.2 1 1 0 0 0 1 .5zm7.3-.3a2.9 2.9 0 0 0 1.9-.5 3.3 3.3 0 0 0 .9-1.7 26.7 26.7 0 0 0 .5-3.9l.5-7h10.3V102h-4.6V88.9h-1.8l-.4 4.8a21.8 21.8 0 0 1-.9 5.3 4.2 4.2 0 0 1-1.8 2.4 7.8 7.8 0 0 1-3.8.8h-.8zm17-13h3.6v8.6l4.2-8.7h3.6V102h-3.7v-8.6l-4.2 8.6h-3.5zm14.2 0h3.4l3.3 7.7 3.3-7.8h3.4V102h-3.5v-8.5l-2.5 6h-1.3l-2.6-6v8.5h-3.5zm16.3 0h3.6v8.6l4.2-8.7h3.6V102h-3.7v-8.6l-4.1 8.6h-3.6z"/><path fill="none" d="M958.5 16.7a78.3 78.3 0 0 0-34.5-8V4.4a82.7 82.7 0 1 0 65.4 32l-3.5 2.7a78.3 78.3 0 0 0-27.4-22.4z"/><path fill="#e6e6e6" d="M979 19.6q1.9 1.5 3.7 3.2-1.8-1.7-3.7-3.2zM977.1 18.1l1.8 1.4-1.8-1.4zM983 23.1l1.3 1.2zM977 18A86.5 86.5 0 0 0 931.6.3 87 87 0 0 1 977 18zM989.7 30q1.6 1.8 3.1 3.8-1.5-2-3.1-3.8zM985 24.9l1 1.1zM986.6 26.6l1 1.1zM992.8 33.8l-3.4 2.7A82.6 82.6 0 1 1 924 4.4V0a87 87 0 1 0 68.8 33.8zM924 0h2.4-2.4zM927 0l1.8.1zM988.2 28.2l1.4 1.7-1.4-1.7zM929.3.2l2 .1z"/><path fill="#f2994a" d="M924 8.7a78.3 78.3 0 0 1 62 30.4l3.4-2.6 3.4-2.7q-1.5-2-3.1-3.8-.7-1-1.5-1.7l-.5-.5-1-1.2-.7-.6-1-1-.7-.6-1.2-1.2-.4-.4-3.6-3.1-.2-.2-1.7-1.4-.2-.1A87 87 0 0 0 931.6.3h-.2l-2.1-.1h-.4l-2-.2H924v8.7z"/><path fill="#2c3535" d="M887 79.5l-2.2 1-.9.4a11 11 0 0 0-1 .5v-4.8a26.7 26.7 0 0 0 5.5-3.4h5V104h-6.3zm19.7 25q-4.6 0-6.6-2.4t-1.9-7.2v-1h6.3v1a8.7 8.7 0 0 0 .5 3.4 1.8 1.8 0 0 0 1.8 1 1.6 1.6 0 0 0 1.6-1 8.5 8.5 0 0 0 .4-3.2 7 7 0 0 0-.6-3.5 2.8 2.8 0 0 0-2.6-1.2h-1.2V86h1a3 3 0 0 0 2.7-1 6.4 6.4 0 0 0 .7-3.5 6 6 0 0 0-.5-2.8 1.8 1.8 0 0 0-1.7-.9 1.6 1.6 0 0 0-1.6 1 7.3 7.3 0 0 0-.5 2.8v1.6h-6.3v-1.9a8.6 8.6 0 0 1 2.2-6.3 8.4 8.4 0 0 1 6.2-2.2 8.8 8.8 0 0 1 6.2 2 8.1 8.1 0 0 1 2.3 6.3 8.9 8.9 0 0 1-1 4.5 4.6 4.6 0 0 1-2.8 2.2 5.2 5.2 0 0 1 2.8 2.4 9.2 9.2 0 0 1 1 4.7 11.2 11.2 0 0 1-2 7.1q-2 2.6-6.4 2.6zm11.8 2.8a3.9 3.9 0 0 0 2-1 3 3 0 0 0 .7-2.3h-3.3v-5.8h5.9v5q0 5.7-5 6.1zm8.4-7.8l7.4-11.3.4-.7a30.2 30.2 0 0 0 2.1-3.6 7.3 7.3 0 0 0 .7-3 3 3 0 0 0-.5-2 1.7 1.7 0 0 0-1.4-.7 2 2 0 0 0-2 1.1 6.8 6.8 0 0 0-.6 3.1V84h-6.2v-1.6a10.7 10.7 0 0 1 2.1-7q2.1-2.5 6.6-2.5a8.4 8.4 0 0 1 6.1 2.1 8 8 0 0 1 2.2 6 9.6 9.6 0 0 1-.6 3.3A14.4 14.4 0 0 1 942 87l-2.4 3.6L934 99h9v5h-16.1zm27.9 5q-4.3 0-6.1-2t-1.8-6V96h6a8.1 8.1 0 0 0 .3 2.9 1.6 1.6 0 0 0 1.6.7 1.4 1.4 0 0 0 1.3-.5 3.7 3.7 0 0 0 .5-1.8 34.4 34.4 0 0 0 .2-3.8v-2.7a3.3 3.3 0 0 1-1.6 1.3 6 6 0 0 1-2.4.4 5.4 5.4 0 0 1-5-2.6 12.7 12.7 0 0 1-1.5-6.6q0-5 2-7.8t6.5-2.7q4.4 0 6.4 2.6t2 7.2V94q0 5-1.8 7.7t-6.6 2.8zm0-16.8a2.3 2.3 0 0 0 2-1.3v-5a8 8 0 0 0-.4-2.9 1.6 1.6 0 0 0-1.6-1 1.6 1.6 0 0 0-1.6 1.2 16 16 0 0 0-.4 4 26.7 26.7 0 0 0 .1 2.9 3.5 3.5 0 0 0 .6 1.5 1.6 1.6 0 0 0 1.4.6zM210.5 83.2a7.3 7.3 0 0 0 3.3-.5 2 2 0 0 0 1-2 5.2 5.2 0 0 0 0-1l-5.2-20.4h4.7l2 9.4.9 6 .7-6 1.6-9.4h4.7l-4.7 21.2a10.3 10.3 0 0 1-1.5 3.8 4.5 4.5 0 0 1-2.6 1.8 18.8 18.8 0 0 1-4.9.3zm20.7-1a5.7 5.7 0 0 1-4.1-1.4 5.3 5.3 0 0 1-1.5-4V71a5.3 5.3 0 0 1 1.5-4 5.7 5.7 0 0 1 4-1.4 6 6 0 0 1 4 1.2 4.5 4.5 0 0 1 1.5 3.7V72h-4.4v-1.8a2 2 0 0 0-.2-1.3.9.9 0 0 0-.8-.4.8.8 0 0 0-.8.5 3.4 3.4 0 0 0-.2 1.5v6.7a3 3 0 0 0 .3 1.4.8.8 0 0 0 .7.4.9.9 0 0 0 .8-.3 2.3 2.3 0 0 0 .3-1.2v-2.2h4.4v2a4.6 4.6 0 0 1-1.5 3.6 5.9 5.9 0 0 1-4 1.3zm7.8-16.4h4.6v6.5h.1a9.8 9.8 0 0 1 5.2 1 4 4 0 0 1 1.7 3.8 4.3 4.3 0 0 1-1.6 3.8q-1.6 1.1-5.2 1.1H239zm4.7 13.6a3.6 3.6 0 0 0 2.1-.5 2.1 2.1 0 0 0 .6-1.7 2 2 0 0 0-.6-1.7 3.7 3.7 0 0 0-2-.5h-.2v4.4zm14.4 2.9a6 6 0 0 1-4.1-1.4 5 5 0 0 1-1.5-3.9v-6.2a5 5 0 0 1 1.5-4 6 6 0 0 1 4.2-1.3 6 6 0 0 1 4.1 1.4 5 5 0 0 1 1.6 4V77a5 5 0 0 1-1.6 4 6 6 0 0 1-4.2 1.3zm0-3a1 1 0 0 0 .9-.5 3.4 3.4 0 0 0 .3-1.5v-6.8a3.2 3.2 0 0 0-.3-1.4 1 1 0 0 0-.9-.5 1 1 0 0 0-1 .5 3.3 3.3 0 0 0-.2 1.4v6.8a3.4 3.4 0 0 0 .3 1.5 1 1 0 0 0 1 .5zm8.2-13.5h8V69H271V82h-4.6zm15 16.5A6 6 0 0 1 277 81a5 5 0 0 1-1.4-4v-6.2a5 5 0 0 1 1.4-4 6 6 0 0 1 4.2-1.3 6 6 0 0 1 4.2 1.4 5 5 0 0 1 1.5 4V77a5 5 0 0 1-1.5 4 6 6 0 0 1-4.2 1.3zm0-3a1 1 0 0 0 .9-.5 3.4 3.4 0 0 0 .2-1.5v-6.8a3.2 3.2 0 0 0-.2-1.4 1 1 0 0 0-1-.5 1 1 0 0 0-.8.5 3.3 3.3 0 0 0-.3 1.4v6.8a3.4 3.4 0 0 0 .3 1.5 1 1 0 0 0 1 .5zm14.4-.8h.7q1.6-.6 2.6-3.1a30.4 30.4 0 0 0 1.4-8.1l.6-8h10.6v19.2h2.5v8.4h-3.3l-.2-4.9h-11.1l-.3 4.9h-3.4zm11.2 0V62.9h-2.1l-.3 4.9a33.9 33.9 0 0 1-.7 5.8 10 10 0 0 1-1.1 3 9.1 9.1 0 0 1-1.6 1.8zM318.4 63H315v-3.7h11.8V63h-3.4v19h-5zm10.4-3.7h13.6V82h-5V62.9h-3.6V82h-5z"/><path fill="none" d="M580.7 299a78.8 78.8 0 0 0-75.2-55.3v-4.3a83.1 83.1 0 1 0 82.5 93.2l-4.3-.6a78.7 78.7 0 0 0-3-33z"/><path fill="#e6e6e6" d="M593 324.2v0zM593 326.4l-.2 1.8.1-1.8zM593 322.5v-.5.5zM593 319.6v0zM592.4 333l-4.4-.5a83.1 83.1 0 1 1-82.5-93.1V235a87.5 87.5 0 1 0 87.3 93.6l-.4 4.5zM564.5 257.9a87.2 87.2 0 0 0-56.6-22.9 87.5 87.5 0 0 1 56.6 22.8zM592.6 314.5a87 87 0 0 0-18.6-46.4 87.5 87.5 0 0 1 18.6 46.4zM564.6 258l3.1 3q-1.5-1.6-3.1-3zM571.3 264.8l1 1.1zM568 261.3l2.9 3-2.9-3zM505.5 235h2.3-2.3zM592.8 317.2l.1 1.6v-1.6zM592.6 314.7l.2 2-.1-2zM572.7 266.4l1.1 1.5-1.1-1.5z"/><path fill="#eb5e5b" d="M505.5 243.8a78.8 78.8 0 0 1 78.2 88.2l4.3.5 4.4.6.4-4.5v-.5-1.7-.8-1.4-1-1.2-1-1.4-.8-1.6-.6l-.1-1.9v-.2a87.5 87.5 0 0 0-18.7-46.4l-.2-.2-1.2-1.5-.4-.5-1-1.1-.2-.3-.2-.2-2.8-3-.3-.3-3.2-3v-.1a87.5 87.5 0 0 0-56.6-22.9h-2.4v8.8z"/><path fill="#2c3535" d="M480.8 344.6q-5.6 0-8.2-3.2t-2.5-8.8a13 13 0 0 1 1.1-5.5 7.2 7.2 0 0 1 3.5-3.5 9.5 9.5 0 0 1-2.8-3.5 12.2 12.2 0 0 1-1.1-5.4q0-4.8 2.6-7.4t7.4-2.7q4.8 0 7.3 2.6a10 10 0 0 1 2.6 7.3 13.4 13.4 0 0 1-1 5.7 7.8 7.8 0 0 1-2.8 3.4 7 7 0 0 1 3.4 3.6 13.6 13.6 0 0 1 1.1 5.8q0 5.4-2.5 8.6t-8 3zm0-24q2.4 0 2.4-5.8a6.6 6.6 0 0 0-.6-3.1 2 2 0 0 0-1.8-1.2 2 2 0 0 0-1.9 1.2 6.3 6.3 0 0 0-.6 3q0 6 2.5 6zm0 18a2 2 0 0 0 1.9-1 5.2 5.2 0 0 0 .7-2.2 27.5 27.5 0 0 0 .1-3.1 10.9 10.9 0 0 0-.5-4 2 2 0 0 0-2.2-1.4 2.1 2.1 0 0 0-2.2 1.6 14.5 14.5 0 0 0-.5 4.5 13.3 13.3 0 0 0 .5 4 2.1 2.1 0 0 0 2.2 1.7zm14.5-.4l9.3-14.3.6-.8a38 38 0 0 0 2.7-4.6 9.2 9.2 0 0 0 .9-3.9 3.8 3.8 0 0 0-.7-2.4 2.1 2.1 0 0 0-1.8-.9 2.6 2.6 0 0 0-2.6 1.5 8.6 8.6 0 0 0-.7 3.8v2h-7.8v-2q0-5.6 2.7-8.8t8.2-3.3q5.2 0 7.9 2.7t2.7 7.6a12 12 0 0 1-.7 4.2 18.1 18.1 0 0 1-1.6 3.5l-3 4.6-7.1 10.6h11.3v6.3h-20.3zm24.7 0l9.3-14.2.6-.9a38 38 0 0 0 2.7-4.5 9.2 9.2 0 0 0 .8-4 3.8 3.8 0 0 0-.6-2.4 2.1 2.1 0 0 0-1.9-.8 2.6 2.6 0 0 0-2.5 1.4 8.6 8.6 0 0 0-.7 4v1.8h-7.8v-2q0-5.5 2.6-8.8t8.3-3.2q5.1 0 7.8 2.7t2.8 7.5a12 12 0 0 1-.8 4.2 18.1 18.1 0 0 1-1.6 3.6l-3 4.5-7 10.6h11.3v6.3H520z"/><circle cx="87" cy="322" r="78.3" fill="#2c3535"/><path fill="#eb5e5b" d="M87 235l-4.5.1-4.4.4q-3.3.3-6.5.9a87 87 0 0 0 0 171.2q3.2.6 6.5 1l4.4.3 4.5.1a87 87 0 0 0 0-174zm0 165.3a78.3 78.3 0 1 1 78.3-78.3A78.3 78.3 0 0 1 87 400.3z"/><path fill="#2c3535" d="M624.5 317.4q-3.4 0-4.9-1.8a8.4 8.4 0 0 1-1.4-5.3v-.8h4.7v.9a6 6 0 0 0 .3 2.4 1.3 1.3 0 0 0 1.3.7 1.2 1.2 0 0 0 1.2-.7 5.7 5.7 0 0 0 .4-2.3 4.8 4.8 0 0 0-.6-2.6 2.3 2.3 0 0 0-2-1 12.2 12.2 0 0 0-1.2 0v-3h1.1a2.5 2.5 0 0 0 2.1-.8 4.6 4.6 0 0 0 .6-2.7 3.9 3.9 0 0 0-.4-2 1.4 1.4 0 0 0-1.3-.7 1.3 1.3 0 0 0-1.3.7 4.7 4.7 0 0 0-.4 2v1.3H618v-1.4a6.2 6.2 0 0 1 1.7-4.7 7.6 7.6 0 0 1 9.3 0 6 6 0 0 1 1.7 4.5 6.5 6.5 0 0 1-.8 3.3 3.4 3.4 0 0 1-2 1.7 4 4 0 0 1 2 1.8 6.8 6.8 0 0 1 .8 3.4 8.2 8.2 0 0 1-1.5 5.3 5.7 5.7 0 0 1-4.8 1.8zm12-.1a3.7 3.7 0 0 1-2-.6 4 4 0 0 1-1.3-1.5 4.6 4.6 0 0 1-.5-1.9 4.8 4.8 0 0 1 1-3 6.8 6.8 0 0 1 2.3-2 29.4 29.4 0 0 1 3.5-1.3v-1.6a2 2 0 0 0-.3-1.1.8.8 0 0 0-.7-.4.8.8 0 0 0-.8.4 1.9 1.9 0 0 0-.2 1l-.1 1.2-4.3-.2a6 6 0 0 1 1.6-4.3 5.8 5.8 0 0 1 4.2-1.4 4.8 4.8 0 0 1 3.7 1.4 4.9 4.9 0 0 1 1.2 3.5v7.5a23.8 23.8 0 0 0 .3 4H640l-.4-2.3a4 4 0 0 1-1 1.9 2.8 2.8 0 0 1-2.1.7zm1.6-3.1a1.6 1.6 0 0 0 1.3-.8V309a6.6 6.6 0 0 0-2 1.5 3 3 0 0 0-.6 2 2.2 2.2 0 0 0 .4 1.3 1 1 0 0 0 1 .4zm8.3-13.4h8v3.1H651V317h-4.6zm9.9 0h3.6v8.7l4.2-8.7h3.6V317H664v-8.6l-4 8.6h-3.7zm14.2 0h4.6v6.3h2.7v-6.3h4.6V317h-4.6v-6.8H675v6.8h-4.6zm15.2 17.7a4.6 4.6 0 0 0 2-.3 1 1 0 0 0 .6-1 12.2 12.2 0 0 0-.6-2.7l-3.8-13.7h4.3l2 9.4 1.5-9.4h4.3l-3.7 16.6a5.2 5.2 0 0 1-2 3.3 6.3 6.3 0 0 1-3.6 1h-1zM696 314a2.9 2.9 0 0 0 1.9-.5 3.4 3.4 0 0 0 .9-1.8 25.8 25.8 0 0 0 .5-3.9l.5-7h10.3V317h-4.6v-13.1h-1.8l-.4 4.8a21.7 21.7 0 0 1-.9 5.3 4.2 4.2 0 0 1-1.9 2.4 7.8 7.8 0 0 1-3.7.8h-.8zm22.3 3.3a6 6 0 0 1-4.2-1.4 5 5 0 0 1-1.5-4v-6a5 5 0 0 1 1.5-4 6 6 0 0 1 4.2-1.4 6 6 0 0 1 4.2 1.4 5 5 0 0 1 1.5 4v6.1a5 5 0 0 1-1.5 4 6 6 0 0 1-4.2 1.3zm0-3a1 1 0 0 0 .9-.5 3.4 3.4 0 0 0 .2-1.5v-6.8a3.2 3.2 0 0 0-.2-1.4 1 1 0 0 0-1-.5 1 1 0 0 0-.8.5 3.3 3.3 0 0 0-.3 1.4v6.8a3.4 3.4 0 0 0 .3 1.5 1 1 0 0 0 1 .5z"/><path fill="none" d="M841.4 322a82.7 82.7 0 0 0 141 58.4l-3-3A78.3 78.3 0 0 0 924 243.7v-4.3a82.7 82.7 0 0 0-82.6 82.6z"/><path fill="#e6e6e6" d="M985 260zM979.9 255.3a86.6 86.6 0 0 0-52.3-20.2 86.9 86.9 0 0 1 52.3 20.2zM1011 323.6v0zM1010.9 317V316.8zM989.4 264.6q2 2.2 3.8 4.6l-3.8-4.6zM992 376.3a86.6 86.6 0 0 0 18.6-46.6 86.9 86.9 0 0 1-18.6 46.6zM1010.9 326.4l-.2 2.9.2-3zM991.9 376.4l-4 4.6q2.1-2.2 4-4.6zM987.1 262.1l1.9 2-1.9-2zM1010.8 316.3a86.6 86.6 0 0 0-17.5-47 86.9 86.9 0 0 1 17.5 47zM1011 322v-1.7V322zM924 235h3-3zM980.3 255.6l2.1 2-2.1-2zM982.5 257.6zM982.4 380.4a82.7 82.7 0 1 1-58.4-141V235a87 87 0 1 0 63.5 146.4l-2 2.1z"/><path fill="#f2994a" d="M991.9 376.4l.1-.1a86.9 86.9 0 0 0 18.6-46.6v-.4l.2-3v-.5l.1-2.2v-1-2.3-.5l-.1-2.8v-.6a86.9 86.9 0 0 0-17.5-47l-.1-.1-3.8-4.7-.4-.4-1.9-2-.1-.2-2-2-.5-.5-2-2-2.2-1.8-.4-.4a86.9 86.9 0 0 0-52.3-20.2H924v8.7a78.3 78.3 0 0 1 55.4 133.6l3 3.1 3.1 3a56 56 0 0 0 2-2l.4-.4q2.1-2.3 4-4.7z"/><path fill="#2c3535" d="M894.2 313h-8.4v-4.8h14.6v4.3l-6.7 26.5h-6.2zm17.4 26.4q-4.5 0-6.5-2.5a11.1 11.1 0 0 1-2-7 10.4 10.4 0 0 1 .9-4.3 5.7 5.7 0 0 1 2.7-2.8 7.5 7.5 0 0 1-2.2-2.8 9.7 9.7 0 0 1-.9-4.3 8 8 0 0 1 2-5.8 7.9 7.9 0 0 1 6-2.2 7.7 7.7 0 0 1 5.8 2.1 7.9 7.9 0 0 1 2 5.8 10.6 10.6 0 0 1-.8 4.5 6.2 6.2 0 0 1-2.2 2.7 5.5 5.5 0 0 1 2.7 2.9 10.8 10.8 0 0 1 .9 4.5 10.5 10.5 0 0 1-2 6.8q-2 2.5-6.4 2.5zm0-19q1.9 0 1.9-4.5a5.2 5.2 0 0 0-.5-2.5 1.5 1.5 0 0 0-1.4-1 1.6 1.6 0 0 0-1.5 1 5 5 0 0 0-.5 2.4q0 4.7 2 4.7zm0 14.3a1.6 1.6 0 0 0 1.5-.8 4.1 4.1 0 0 0 .5-1.7 21.8 21.8 0 0 0 .1-2.5 8.6 8.6 0 0 0-.4-3.1 1.6 1.6 0 0 0-1.7-1.1 1.7 1.7 0 0 0-1.8 1.2 11.5 11.5 0 0 0-.4 3.6 10.5 10.5 0 0 0 .4 3.1 1.7 1.7 0 0 0 1.8 1.4zm20.4 4.9a8 8 0 0 1-6.2-2.4 9.2 9.2 0 0 1-2.2-6.4v-14a9.7 9.7 0 0 1 2-6.6q2.2-2.4 6.4-2.4t6.3 2.4a9.7 9.7 0 0 1 2 6.6v14a9.2 9.2 0 0 1-2.1 6.4 7.9 7.9 0 0 1-6.2 2.4zm0-5.7a1.4 1.4 0 0 0 1.5-1 6.5 6.5 0 0 0 .4-2.3V317a7.8 7.8 0 0 0-.3-2.5 1.4 1.4 0 0 0-1.6-1 1.5 1.5 0 0 0-1.6 1 8.8 8.8 0 0 0-.3 2.5v13.6q0 3.3 1.9 3.3zm20.9-1.8h-9.5v-4.7l8-19.2h7.4v19.2h2.8v4.7h-2.8v6.9h-6zm0-4.7v-12.8l-4.7 12.8zM1039.7 298h-3.4v-3.7h11.8v3.7h-3.3v19h-5zm10.2 2.8h4.6v1.2a5.4 5.4 0 0 1 1.7-1 4.8 4.8 0 0 1 1.8-.4 2.9 2.9 0 0 1 2.6 1.3 6.1 6.1 0 0 1 .8 3.4v7a6.4 6.4 0 0 1-.9 3.7 3 3 0 0 1-2.6 1.3 5.3 5.3 0 0 1-3.4-1.5v6.6h-4.6zm5.8 13.5a1 1 0 0 0 .9-.5 2.5 2.5 0 0 0 .3-1.3V305a2.3 2.3 0 0 0-.3-1.2 1 1 0 0 0-.8-.5 1.9 1.9 0 0 0-1.3.6v10a2.2 2.2 0 0 0 1.2.4zm11.7 3a3.7 3.7 0 0 1-2-.6 4 4 0 0 1-1.4-1.5 4.6 4.6 0 0 1-.4-2 4.8 4.8 0 0 1 1-3 6.8 6.8 0 0 1 2.3-1.9 29.8 29.8 0 0 1 3.4-1.4v-1.6a2 2 0 0 0-.2-1 .7.7 0 0 0-.7-.4.8.8 0 0 0-.8.3 1.9 1.9 0 0 0-.2 1l-.1 1.2-4.3-.2a6 6 0 0 1 1.5-4.2 5.8 5.8 0 0 1 4.3-1.4 4.8 4.8 0 0 1 3.6 1.3 4.9 4.9 0 0 1 1.3 3.5v7.6a23.3 23.3 0 0 0 .3 4h-4.1l-.4-2.3a4 4 0 0 1-1.1 1.9 2.8 2.8 0 0 1-2 .7zm1.6-3.2a1.6 1.6 0 0 0 1.3-.8V309a6.7 6.7 0 0 0-2 1.5 3 3 0 0 0-.6 2 2.1 2.1 0 0 0 .4 1.3 1 1 0 0 0 .9.4zm8.4-13.3h5.7a10 10 0 0 1 3.6.5 3 3 0 0 1 1.7 1.3 4.7 4.7 0 0 1 .4 2.2 3.5 3.5 0 0 1-.6 2.3 3.6 3.6 0 0 1-1.9 1 3.6 3.6 0 0 1 2.3 1.5 5 5 0 0 1 .6 2.7 5.2 5.2 0 0 1-.6 2.6 3.6 3.6 0 0 1-2 1.5 11.5 11.5 0 0 1-3.8.5h-5.5zm5.6 6.3a1.3 1.3 0 0 0 1.1-.4 3.5 3.5 0 0 0 0-3 1.6 1.6 0 0 0-1.4-.6h-.8v4zm-.4 7.3a4.8 4.8 0 0 0 1.2 0 1.2 1.2 0 0 0 .7-.7 3.4 3.4 0 0 0 .3-1.6 4.4 4.4 0 0 0-.3-1.7 1.1 1.1 0 0 0-.6-.6 4 4 0 0 0-1.2-.2h-.8v4.8zm9-13.6h3.3l3.3 7.7 3.3-7.7h3.4v16.1h-3.5v-8.5l-2.5 6h-1.4l-2.5-6v8.6h-3.5zm21.5 16.4a6 6 0 0 1-4.2-1.3 5 5 0 0 1-1.5-4v-6.1a5 5 0 0 1 1.5-4 6 6 0 0 1 4.2-1.3 6 6 0 0 1 4.2 1.4 5 5 0 0 1 1.5 3.9v6.2a5 5 0 0 1-1.5 4 6 6 0 0 1-4.2 1.3zm0-3a1 1 0 0 0 .9-.5 3.4 3.4 0 0 0 .2-1.4v-6.8a3.2 3.2 0 0 0-.2-1.5 1 1 0 0 0-.9-.5 1 1 0 0 0-1 .5 3.3 3.3 0 0 0-.2 1.5v6.8a3.4 3.4 0 0 0 .3 1.4 1 1 0 0 0 1 .6zm8.2-13.4h5.7a10 10 0 0 1 3.6.5 3 3 0 0 1 1.7 1.3 4.7 4.7 0 0 1 .5 2.2 3.5 3.5 0 0 1-.7 2.3 3.6 3.6 0 0 1-1.8 1.1 3.5 3.5 0 0 1 2.2 1.4 5 5 0 0 1 .7 2.7 5 5 0 0 1-.7 2.6 3.6 3.6 0 0 1-2 1.6 11.5 11.5 0 0 1-3.7.5h-5.5zm5.7 6.4a1.2 1.2 0 0 0 1-.5 2.6 2.6 0 0 0 .4-1.5 2.7 2.7 0 0 0-.4-1.5 1.6 1.6 0 0 0-1.4-.6h-.8v4zm-.4 7.2a4.8 4.8 0 0 0 1.2 0 1.2 1.2 0 0 0 .7-.7 3.4 3.4 0 0 0 .2-1.5 4.2 4.2 0 0 0-.2-1.8 1 1 0 0 0-.7-.6 4 4 0 0 0-1.2-.2h-.8v4.9zm12.1 2.8a3.7 3.7 0 0 1-2-.5 4 4 0 0 1-1.3-1.5 4.6 4.6 0 0 1-.4-1.9 4.8 4.8 0 0 1 1-3 6.8 6.8 0 0 1 2.3-2 29.6 29.6 0 0 1 3.4-1.4v-1.6a2 2 0 0 0-.2-1 .8.8 0 0 0-.8-.4.8.8 0 0 0-.7.3 1.9 1.9 0 0 0-.3 1v1.2l-4.3-.1a6 6 0 0 1 1.5-4.3 5.8 5.8 0 0 1 4.3-1.4 4.7 4.7 0 0 1 3.6 1.3 4.9 4.9 0 0 1 1.3 3.5v7.6a24.4 24.4 0 0 0 .2 4h-4a22.7 22.7 0 0 0-.4-2.3 4 4 0 0 1-1.1 1.9 2.8 2.8 0 0 1-2 .7zm1.6-3a1.6 1.6 0 0 0 1.3-.8V309a6.6 6.6 0 0 0-1.9 1.5 3 3 0 0 0-.6 2 2.2 2.2 0 0 0 .3 1.3 1 1 0 0 0 1 .4zm8.4-13.4h4.5v6.3h2.8v-6.3h4.6V317h-4.6v-6.8h-2.7v6.8h-4.6zm20 16.4a6 6 0 0 1-4.2-1.3 5 5 0 0 1-1.5-4v-6.1a5 5 0 0 1 1.5-4 7 7 0 0 1 8.4 0 5 5 0 0 1 1.5 4v6.2a5 5 0 0 1-1.5 4 6 6 0 0 1-4.2 1.3zm0-3a1 1 0 0 0 .9-.4 3.4 3.4 0 0 0 .2-1.5v-6.8a3.2 3.2 0 0 0-.2-1.5 1 1 0 0 0-1-.5 1 1 0 0 0-.8.5 3.3 3.3 0 0 0-.3 1.5v6.8a3.4 3.4 0 0 0 .3 1.5 1 1 0 0 0 1 .5zM210.5 318.1a7.3 7.3 0 0 0 3.3-.4 2 2 0 0 0 1-2 5.2 5.2 0 0 0 0-1l-5.2-20.4h4.7l2 9.3.9 6.1.7-6 1.6-9.4h4.7l-4.7 21.2a10.3 10.3 0 0 1-1.5 3.8 4.5 4.5 0 0 1-2.6 1.8 18.8 18.8 0 0 1-4.9.4zm20.7-.8a5.7 5.7 0 0 1-4.1-1.5 5.3 5.3 0 0 1-1.5-4V306a5.3 5.3 0 0 1 1.5-4 5.7 5.7 0 0 1 4-1.4 6 6 0 0 1 4 1.2 4.5 4.5 0 0 1 1.5 3.6v1.8h-4.4v-1.9a2 2 0 0 0-.2-1.2.9.9 0 0 0-.8-.4.8.8 0 0 0-.8.5 3.4 3.4 0 0 0-.2 1.4v6.8a3 3 0 0 0 .3 1.4.8.8 0 0 0 .7.4.9.9 0 0 0 .8-.3 2.3 2.3 0 0 0 .3-1.2v-2.2h4.4v2a4.6 4.6 0 0 1-1.4 3.7 5.9 5.9 0 0 1-4.1 1.2zm7.8-16.5h4.6v6.5h.1a9.8 9.8 0 0 1 5.2 1 4 4 0 0 1 1.7 3.8 4.3 4.3 0 0 1-1.6 3.8q-1.6 1.1-5.3 1.1H239zm4.7 13.6a3.6 3.6 0 0 0 2.1-.5 2.1 2.1 0 0 0 .6-1.7 2 2 0 0 0-.6-1.7 3.7 3.7 0 0 0-2-.5h-.2v4.4zm14.4 2.9a6 6 0 0 1-4.2-1.4 5 5 0 0 1-1.4-4v-6a5 5 0 0 1 1.4-4 6 6 0 0 1 4.2-1.4 6 6 0 0 1 4.2 1.4 5 5 0 0 1 1.5 4v6.1a5 5 0 0 1-1.5 4 6 6 0 0 1-4.2 1.3zm0-3a1 1 0 0 0 .9-.5 3.4 3.4 0 0 0 .3-1.5v-6.8a3.2 3.2 0 0 0-.3-1.4 1 1 0 0 0-.9-.5 1 1 0 0 0-1 .5 3.3 3.3 0 0 0-.2 1.4v6.8a3.4 3.4 0 0 0 .3 1.5 1 1 0 0 0 1 .5zm8.2-13.5h8v3.1H271V317h-4.6zm15 16.5a6 6 0 0 1-4.2-1.3 5 5 0 0 1-1.5-4v-6.2a5 5 0 0 1 1.5-3.9 6 6 0 0 1 4.2-1.3 6 6 0 0 1 4.2 1.3 5 5 0 0 1 1.5 4v6.1a5 5 0 0 1-1.5 4 6 6 0 0 1-4.2 1.3zm0-3a1 1 0 0 0 .9-.5 3.4 3.4 0 0 0 .2-1.5v-6.7a3.2 3.2 0 0 0-.2-1.5 1 1 0 0 0-1-.5 1 1 0 0 0-.8.5 3.3 3.3 0 0 0-.3 1.5v6.7a3.4 3.4 0 0 0 .3 1.5 1 1 0 0 0 1 .5zm14.4-.8h.7q1.6-.6 2.6-3.1a30.4 30.4 0 0 0 1.4-8.1l.6-8h10.6v19.2h2.5v8.5h-3.3l-.2-5h-11.1l-.3 5h-3.4zm11.2 0v-15.6h-2.1l-.3 4.9a33.9 33.9 0 0 1-.7 5.8 10 10 0 0 1-1.1 3 9.1 9.1 0 0 1-1.6 1.8zm11.5-15.5H315v-3.7h11.8v3.7h-3.4v19h-5zm10.4-3.7h13.6V317h-5v-19.1h-3.6V317h-5z"/><path fill="#fff" d="M40.1 334.3h-12v-6l10.2-24.2h9.3v24.2h3.6v6h-3.6v8.7H40zm0-6V312l-5.8 16.2zm23.3-18.1H52.8V304h18.4v5.5L62.7 343H55zm21 24h-12v-6L82.6 304h9.3v24.2h3.6v6h-3.6v8.8h-7.5zm0-6v-16l-5.8 16.1zm25.2 6h-12v-6l10.1-24.2h9.3v24.2h3.6v6H117v8.8h-7.4zm0-6v-16l-5.8 16.1zm24.3 15.4a11.6 11.6 0 0 1-6.4-1.5 7.5 7.5 0 0 1-3-4 22.3 22.3 0 0 1-.8-6.6h7.7a15.1 15.1 0 0 0 .6 4.8 2.2 2.2 0 0 0 2.2 1.3 2 2 0 0 0 1.9-.9 5.2 5.2 0 0 0 .7-2.4q.2-1.7.2-4.8a15 15 0 0 0-.7-5 2.4 2.4 0 0 0-2.4-1.7q-2.4 0-3 3.6h-7l.8-22.4h18.1v6.7h-11.7l-.4 8a4.1 4.1 0 0 1 2.2-1.3 11 11 0 0 1 3.5-.6 6.7 6.7 0 0 1 6 3.3q2 3.2 2 9.2a30.7 30.7 0 0 1-.7 7.7 8.7 8.7 0 0 1-3.1 4.8q-2.3 2-6.7 2z"/></svg>