<?xml version="1.0" standalone="no"?>
<!DOCTYPE svg PUBLIC "-//W3C//DTD SVG 20010904//EN"
 "http://www.w3.org/TR/2001/REC-SVG-20010904/DTD/svg10.dtd">
<svg version="1.0" xmlns="http://www.w3.org/2000/svg"
 width="300.000000pt" height="300.000000pt" viewBox="0 0 300.000000 300.000000"
 preserveAspectRatio="xMidYMid meet">
<metadata>
Created by potrace 1.11, written by Peter Selinger 2001-2013
</metadata>
<g transform="translate(0.000000,300.000000) scale(0.100000,-0.100000)"
fill="#000000" stroke="none">
<path d="M950 2993 c-105 -18 -186 -71 -287 -189 -10 -12 -59 -66 -109 -120
-51 -54 -104 -112 -119 -129 -16 -16 -76 -82 -135 -145 -59 -63 -133 -144
-166 -179 -32 -35 -67 -80 -77 -100 -43 -87 -59 -230 -37 -326 5 -22 11 -52
13 -66 7 -39 55 -156 93 -227 133 -247 374 -522 745 -847 223 -196 576 -451
876 -634 l52 -32 43 24 c183 100 619 403 736 512 21 18 47 42 60 53 12 11 22
24 22 29 0 5 -62 53 -137 105 -76 53 -154 108 -173 122 -19 14 -46 34 -60 43
-464 332 -944 745 -1221 1053 -145 161 -320 415 -304 441 6 9 46 10 159 5 157
-6 185 -9 276 -27 187 -36 396 -141 578 -291 l74 -61 41 40 c111 105 310 249
439 318 208 111 425 151 571 105 l58 -18 10 26 c27 71 13 216 -30 304 -70 145
-203 216 -405 216 -202 0 -384 -73 -633 -254 l-101 -74 -90 68 c-153 114 -343
216 -442 236 -14 3 -36 8 -50 11 -30 8 -235 14 -270 8z"/>
</g>
</svg>
