<svg xmlns="http://www.w3.org/2000/svg" xmlns:xlink="http://www.w3.org/1999/xlink" style="display:none"><symbol id="divider-icon"><circle cx="21" cy="21" r="21" fill="#fff"/><path fill="#eb5e5b" d="M19.99 2h1.98v2.01h-1.98zm0 35.99h1.98V40h-1.98zM6.97 32.24h1.98v2.01H6.97zm25.49 0h1.98v2.01h-1.98zM6.97 7.51h1.98v2.01H6.97zm25.49 0h1.98v2.01h-1.98zM2 19.84h1.98v2.01H2zm36.02 0H40v2.01h-1.98zM4 18.46a18 18 0 0 1 2.86-7.36l.23-.32H5.73l-.12.12a18 18 0 0 0-2.76 7.52v.24H4zm2.74 12.29a18 18 0 0 1-2.8-7.52v-.2H2.78v.24A18.72 18.72 0 0 0 5.54 31l.08.08H7zM38 18.5v.2h1.17v-.24a19.07 19.07 0 0 0-2.76-7.52l-.08-.08h-1.38l.23.32A18.05 18.05 0 0 1 38 18.5zm0 4.72a17.81 17.81 0 0 1-2.8 7.52l-.23.32h1.36l.08-.08a18 18 0 0 0 2.72-7.72v-.24h-1.07zM30.36 6.45h1.94l-.51-.39a17.59 17.59 0 0 0-8.47-3.5h-.23v1.17h.19a16.37 16.37 0 0 1 7.08 2.72zm-18.8 0a16.68 16.68 0 0 1 7.11-2.68h.19V2.55h-.23a17.86 17.86 0 0 0-8.55 3.5l-.51.39h1.94zm11.73 31.82h-.19v1.18h.23A18.06 18.06 0 0 0 32 35.83l.51-.39h-1.94a17.31 17.31 0 0 1-7.28 2.83zm-11.89-2.8H9.42l.51.39a18.19 18.19 0 0 0 8.7 3.62h.23v-1.17h-.19a17.11 17.11 0 0 1-7.27-2.84zM31.14 18.7a.82.82 0 0 0-.51-.59l-1.75.2-1.59-3.78a1.92 1.92 0 0 0-1.71-1.22h-9.32a2 2 0 0 0-1.71 1.22L13 18.3l-1.71-.2a.82.82 0 0 0-.51.59 1.13 1.13 0 0 0 .82 1.58l.58.08a4.93 4.93 0 0 0 .51 5.87 3.83 3.83 0 0 0 .78.51v1.18a.8.8 0 0 0 .82.83h1.09a.8.8 0 0 0 .82-.83v-1.14h9.48v1.1a.8.8 0 0 0 .82.83h1.1a.8.8 0 0 0 .82-.83v-1.18a1.41 1.41 0 0 0 .74-.51 4.93 4.93 0 0 0 .7-5.87h.51a1.13 1.13 0 0 0 .77-1.61zM15.83 15a.7.7 0 0 1 .54-.35h9.13a.62.62 0 0 1 .54.32l1.55 3.74H14.26zm-.7 8.35a1.18 1.18 0 1 1 1.17-1.15 1.18 1.18 0 0 1-1.17 1.18zm11.46 0a1.18 1.18 0 1 1 1.17-1.18 1.15 1.15 0 0 1-1.17 1.21z"/></symbol><symbol id="facebook-icon"><path d="M6 18H2.41V9H0V5.9h2.41V4.07C2.4 1.54 3.14 0 6.33 0H9v3.1H7.32C6.08 3.1 6 3.54 6 4.34V5.9h3L8.65 9H6z"/></symbol><symbol id="insta-icon"><path d="M13 0H5a5 5 0 0 0-5 5v8a5 5 0 0 0 5 5h8a5 5 0 0 0 5-5V5a5 5 0 0 0-5-5zm0 16.4H5A3.37 3.37 0 0 1 1.6 13V5A3.37 3.37 0 0 1 5 1.6h8A3.37 3.37 0 0 1 16.4 5v8a3.37 3.37 0 0 1-3.4 3.4z"/><path d="M9 4.36A4.64 4.64 0 1 0 13.64 9 4.64 4.64 0 0 0 9 4.36zM9 12a3 3 0 1 1 3-3 3 3 0 0 1-3 3zm4.83-9a1.17 1.17 0 1 0 .83.34 1.18 1.18 0 0 0-.83-.34z"/></symbol><symbol id="menu-arrow-down"><path d="M4 5L0 0h8z"/></symbol><symbol id="youtube-icon"><path d="M21.87.15c1.56.09 2.32.32 3 1.58S26 5.17 26 9c0 3.81-.37 6-1.1 7.25s-1.47 1.49-3 1.6-5.51.15-8.9.15-7.31-.05-8.87-.15-2.32-.34-3-1.6S0 12.82 0 9c0-3.83.37-6 1.1-7.27S2.58.24 4.13.15 9.61 0 13 0s7.31 0 8.87.15zM17.88 9L9.75 4.09v9.82z"/></symbol></svg>