<svg xmlns="http://www.w3.org/2000/svg" width="200" height="64" viewBox="0 0 200 64"><path fill="#eb5e5b" d="M58.41 3.06C55.32-1.08 48.19-.8 42.56 2.58a45.18 45.18 0 0 0-6.23 4.54 45.7 45.7 0 0 0-6.23-4.54c-5.63-3.38-12.76-3.66-15.86.48l-.24.36.35-.4c-1.55 2.87-1.1 6.33.65 10.06a33.76 33.76 0 0 1 9.92.72C31.1 15.18 37 20.72 37.3 21.22a37.32 37.32 0 0 1 6.88-5.86c4.39-3.23 10.91-5.9 15.65-3.63a9.62 9.62 0 0 0-1.42-8.67z"/><path fill="#fff" d="M14.31 3l-.35.4L1.37 17.77C-7.06 32.89 25.7 57.7 36.35 64 49.44 55.78 53.8 50.81 53.8 50.81c.2-.14-31.32-21.53-38.8-37.73-1.75-3.73-2.2-7.19-.69-10.08z"/><path fill="#eb5e5b" d="M50.47 34.32a7.62 7.62 0 0 0 5.14 2.58c2.06 0 3.18-1 3.18-2.91 0-1.53-.88-2.55-2.84-2.55H53v-5.05h2.37a2.68 2.68 0 1 0 0-5.35 8.09 8.09 0 0 0-5 2.14l-2.27-4.54a12 12 0 0 1 8.39-3.06c3.55 0 7.75 2.29 7.75 7.35a6.39 6.39 0 0 1-3.15 5.68v.07a5.83 5.83 0 0 1 3.79 5.79c0 5.06-4 8-8.63 8a11.9 11.9 0 0 1-8.86-4zM68.66 16h8.9c4.84 0 8.22 2.33 8.22 6.8A6.48 6.48 0 0 1 83 28.36v.07c2.77.91 3.79 3.57 3.79 5.86 0 5.68-4.4 7.75-9.2 7.75h-8.9V16zm9 10.08a2.14 2.14 0 0 0 2.13-2.4 2 2 0 0 0-2.23-2.22h-2.98v4.64zm.51 10.48a2.5 2.5 0 0 0 2.57-2.73 2.42 2.42 0 0 0-2.54-2.66h-3.62v5.38zM95.88 16h6.22l8.22 26h-6.09l-1.49-5.46h-7.53L93.75 42h-6.08zm5.48 15.46L100 26.43c-.43-1.64-1-4.43-1-4.43s-.54 2.84-1 4.47l-1.39 5.06zM116.91 28.54v-.07l-6-12.44h6.36l4.47 10h2.3V16H130v10h2.3l4.47-10h6.36l-6 12.44v.07L143.6 42H137l-4.7-10.55H130V42h-6V31.48h-2.3L117 42h-6.63zM151.91 16h6.22l8.22 26h-6.09l-1.49-5.46h-7.54L149.79 42h-6.09zm5.48 15.46L156 26.43c-.44-1.64-1-4.47-1-4.47s-.54 2.84-1 4.47l-1.39 5.06zM168.78 16h5.92v12.17c0 1.64-.27 4.44-.27 4.44h.07a47.61 47.61 0 0 1 2-4.44L183.23 16h6v26h-5.92V29.92c0-1.64.27-4.44.27-4.44h-.07a48.57 48.57 0 0 1-2 4.44L174.74 42h-6V16zm4.13-6.73v-.4h4.33v.44a2 2 0 0 0 2.1 2.14 2 2 0 0 0 2.1-2.14v-.42h4.29v.4c0 3.57-3 5.57-6.39 5.57s-6.43-2-6.43-5.57zM193.91 16H200l-.54 18h-5zm.37 20.55h5.34V42h-5.34z"/><path fill="#2c3535" d="M10.06 26.51l1.23-.73A31.32 31.32 0 0 1 8 19l-.81.49a26.66 26.66 0 0 0 2.87 7.02zM6.84 17.73l.66-.39a14.2 14.2 0 0 1-.33-5.7 12.88 12.88 0 0 0-.52 3.72 17.16 17.16 0 0 0 .19 2.37zM24.17 42.85l1.57-1.15c-2.28-2-4.51-4.07-6.59-6.21l-1.42 1a107.5 107.5 0 0 0 6.44 6.36zM12.34 30a61.3 61.3 0 0 0 3.86 4.78l1.37-1a59.58 59.58 0 0 1-5.07-6.21l-.17-.25-1.27.78c.39.66.81 1.29 1.28 1.9zM32.45 49.93l1.08.86 1.81-1.32c-2.42-1.83-5-3.87-7.61-6.05l-1.63 1.16c2.13 1.88 4.28 3.68 6.35 5.35zM35.61 52.42c2.21 1.71 4.26 3.23 6 4.49 1 .7 1.93 1.3 2.66 1.79.73-.52 1.41-1 2-1.5-1.74-1.14-5-3.3-8.83-6.14z"/></svg>